<?xml version="1.0" encoding="utf-8"?>

<!-- Uploaded to: SVG Repo, www.svgrepo.com, Generator: SVG Repo Mixer Tools -->
<svg width="800px" height="800px" viewBox="-8.89 0 43.805 43.805" xmlns="http://www.w3.org/2000/svg">
  <g id="Group_310" data-name="Group 310" transform="translate(-661.882 -146.778)">
    <g id="Group_81" data-name="Group 81">
      <g id="red_wine" data-name="red wine">
        <g id="Group_76" data-name="Group 76">
          <path id="Path_58" data-name="Path 58" d="M674.89,154.832c-5.054,0-10.493-1.26-10.493-4.027s5.439-4.027,10.493-4.027,10.492,1.26,10.492,4.027S679.943,154.832,674.89,154.832ZM666.4,150.8c.083.607,3.067,2.027,8.493,2.027s8.413-1.422,8.492-2.028c-.076-.6-3.059-2.026-8.492-2.026S666.477,150.2,666.4,150.8Z" fill="currentColor"/>
        </g>
        <g id="Group_77" data-name="Group 77">
          <path id="Path_59" data-name="Path 59" d="M674.89,190.583c-5.054,0-10.493-1.26-10.493-4.027s5.439-4.026,10.493-4.026,10.492,1.26,10.492,4.026S679.943,190.583,674.89,190.583Zm-8.493-4.027c.08.608,3.062,2.027,8.493,2.027s8.416-1.421,8.492-2.028c-.079-.6-3.064-2.025-8.492-2.025S666.48,185.949,666.4,186.556Z" fill="currentColor"/>
        </g>
        <g id="Group_78" data-name="Group 78">
          <path id="Path_60" data-name="Path 60" d="M674.89,173.116c-7.173,0-13.008-6.459-13.008-14.4a15.424,15.424,0,0,1,2.859-9.008l1.619,1.175a13.409,13.409,0,0,0-2.478,7.833c0,6.837,4.938,12.4,11.008,12.4s11.007-5.561,11.007-12.4a13.43,13.43,0,0,0-2.461-7.812l1.624-1.17a15.242,15.242,0,0,1,2.837,8.982C687.9,166.657,682.062,173.116,674.89,173.116Z" fill="currentColor"/>
        </g>
        <g id="Group_79" data-name="Group 79">
          <path id="Path_61" data-name="Path 61" d="M682.024,163.791a1,1,0,0,1-.911-1.41,11.152,11.152,0,0,0,.524-5.661c-.039-.391-.1-.774-.173-1.15a1,1,0,0,1,1.961-.394c.09.447.158.9.2,1.347a13.093,13.093,0,0,1-.69,6.677A1,1,0,0,1,682.024,163.791Z" fill="currentColor"/>
        </g>
        <g id="Group_80" data-name="Group 80">
          <path id="Path_62" data-name="Path 62" d="M674.89,186.186a1,1,0,0,1-1-1v-13.07a1,1,0,0,1,2,0v13.07A1,1,0,0,1,674.89,186.186Z" fill="currentColor"/>
        </g>
      </g>
    </g>
  </g>
</svg>